<svg width="21" height="16" viewBox="0 0 21 16" fill="none" xmlns="http://www.w3.org/2000/svg">
<path d="M20.1699 8.73542L3.82006 8.73542L9.07286 13.97C9.22386 14.1275 9.30707 14.3379 9.30461 14.5561C9.30214 14.7743 9.2142 14.9828 9.05967 15.1368C8.90514 15.2908 8.69636 15.3781 8.47819 15.3799C8.26001 15.3816 8.04985 15.2977 7.89286 15.1462L1.21526 8.49262C1.13781 8.4153 1.07637 8.32348 1.03445 8.22239C0.992525 8.12131 0.970947 8.01295 0.970947 7.90352C0.970947 7.79408 0.992525 7.68573 1.03445 7.58464C1.07637 7.48356 1.13781 7.39173 1.21526 7.31442L7.89246 0.660017C8.04945 0.508504 8.25961 0.424616 8.47779 0.426377C8.69596 0.42814 8.90474 0.51541 9.05927 0.669439C9.2138 0.823469 9.30174 1.03197 9.30421 1.25013C9.30667 1.4683 9.22346 1.67873 9.07246 1.83622L3.82006 7.07162L20.1699 7.07162C20.3905 7.07162 20.6021 7.15926 20.7581 7.31527C20.9141 7.47129 21.0018 7.68288 21.0018 7.90352C21.0018 8.12415 20.9141 8.33575 20.7581 8.49176C20.6021 8.64777 20.3905 8.73542 20.1699 8.73542Z" fill="white"/>
</svg>
