<svg width="21" height="16" viewBox="0 0 21 16" fill="none" xmlns="http://www.w3.org/2000/svg">
<path d="M0.830387 8.73542L17.1802 8.73542L11.9274 13.97C11.7764 14.1275 11.6932 14.3379 11.6956 14.5561C11.6981 14.7743 11.786 14.9828 11.9406 15.1368C12.0951 15.2908 12.3039 15.3781 12.5221 15.3799C12.7402 15.3816 12.9504 15.2977 13.1074 15.1462L19.785 8.49262C19.8624 8.4153 19.9239 8.32348 19.9658 8.22239C20.0077 8.12131 20.0293 8.01295 20.0293 7.90352C20.0293 7.79408 20.0077 7.68573 19.9658 7.58464C19.9239 7.48356 19.8624 7.39173 19.785 7.31442L13.1078 0.660017C12.9508 0.508504 12.7406 0.424616 12.5225 0.426377C12.3043 0.42814 12.0955 0.51541 11.941 0.669439C11.7864 0.823469 11.6985 1.03197 11.696 1.25013C11.6936 1.4683 11.7768 1.67873 11.9278 1.83622L17.1802 7.07162L0.830387 7.07162C0.609755 7.07162 0.398157 7.15926 0.242146 7.31527C0.086134 7.47129 -0.00151253 7.68288 -0.00151253 7.90352C-0.00151253 8.12415 0.086134 8.33575 0.242146 8.49176C0.398157 8.64777 0.609755 8.73542 0.830387 8.73542Z" fill="white"/>
</svg>
