<svg width="27" height="27" viewBox="0 0 27 27" fill="none" xmlns="http://www.w3.org/2000/svg">
<path d="M21.1667 10.5256C20.8267 10.5251 20.4945 10.6285 20.2138 10.8221C20.1495 10.5563 20.0235 10.3098 19.8462 10.1029C19.6688 9.89593 19.4452 9.73455 19.1939 9.63208C18.9425 9.5296 18.6706 9.48895 18.4006 9.5135C18.1306 9.53805 17.8703 9.62709 17.6411 9.77326C17.6043 9.48702 17.4971 9.21464 17.3291 8.98105C17.1611 8.74745 16.9377 8.5601 16.6795 8.43612C16.4212 8.31214 16.1362 8.2555 15.8507 8.27137C15.5651 8.28724 15.2881 8.37512 15.0448 8.52696V5.84609C15.0448 5.39228 14.8662 4.95706 14.5483 4.63617C14.2303 4.31528 13.7991 4.13501 13.3494 4.13501C12.8998 4.13501 12.4685 4.31528 12.1506 4.63617C11.8326 4.95706 11.654 5.39228 11.654 5.84609V10.5554C11.3379 10.5547 11.0248 10.617 10.7326 10.7386C10.4404 10.8601 10.1747 11.0386 9.95092 11.2639C9.72709 11.4891 9.54944 11.7566 9.42813 12.0512C9.30682 12.3458 9.24421 12.6616 9.24391 12.9806V13.9926C9.23195 15.0328 9.43571 16.0639 9.84211 17.0199C10.1799 18.1005 10.601 19.4451 11.729 20.1971C12.1964 20.5713 12.7726 20.9185 12.762 21.5869L12.7604 24.171C12.7604 24.2762 12.8018 24.377 12.8755 24.4513C12.9491 24.5257 13.049 24.5674 13.1532 24.5674H20.096C20.2001 24.5674 20.3 24.5257 20.3737 24.4513C20.4473 24.377 20.4887 24.2762 20.4887 24.171V22.0523C20.4864 21.7786 20.5758 21.5122 20.7425 21.2963C22.0469 19.6579 22.7915 17.6378 22.865 15.5374V12.2365C22.8622 11.783 22.6823 11.3489 22.3642 11.0286C22.0461 10.7082 21.616 10.5275 21.1667 10.5256ZM21.3599 18.7411C21.0437 19.4801 20.63 20.1727 20.1301 20.8C19.8518 21.157 19.7015 21.5985 19.7036 22.0527L19.7032 23.7746H13.5472V21.5869C13.5684 20.6446 12.8802 20.0591 12.1772 19.5462C11.2659 18.9385 10.9077 17.7925 10.588 16.7714C10.2086 15.8956 10.0182 14.9483 10.0295 13.9926V12.9806C10.0299 12.5479 10.2004 12.133 10.5035 11.827C10.8067 11.5211 11.2178 11.349 11.6465 11.3486L11.654 13.6969C11.654 13.802 11.6954 13.9028 11.769 13.9772C11.8427 14.0515 11.9426 14.0933 12.0468 14.0933C12.1509 14.0933 12.2508 14.0515 12.3245 13.9772C12.3982 13.9028 12.4395 13.802 12.4395 13.6969V5.84609C12.4395 5.6026 12.5354 5.36908 12.706 5.19691C12.8766 5.02474 13.108 4.92802 13.3492 4.92802C13.5905 4.92802 13.8219 5.02474 13.9924 5.19691C14.163 5.36908 14.2589 5.6026 14.2589 5.84609V9.9334C14.2502 9.96789 14.2648 13.6192 14.2589 13.6564C14.2587 13.7616 14.3 13.8625 14.3735 13.9369C14.4471 14.0114 14.5469 14.0533 14.6511 14.0534C14.7552 14.0536 14.8552 14.012 14.929 13.9377C15.0028 13.8635 15.0443 13.7628 15.0444 13.6576V9.94332C15.054 9.70355 15.1559 9.47702 15.3286 9.31205C15.5013 9.14708 15.731 9.05672 15.9687 9.06024C16.2064 9.06375 16.4334 9.16087 16.6012 9.33088C16.769 9.50088 16.8644 9.73032 16.8669 9.97027V13.6564C16.8669 13.7616 16.9083 13.8624 16.982 13.9367C17.0556 14.0111 17.1555 14.0528 17.2597 14.0528C17.3639 14.0528 17.4638 14.0111 17.5374 13.9367C17.6111 13.8624 17.6525 13.7616 17.6525 13.6564V11.2086C17.6574 10.9685 17.7554 10.7399 17.9254 10.5718C18.0955 10.4038 18.324 10.3096 18.562 10.3096C18.7999 10.3096 19.0285 10.4038 19.1985 10.5718C19.3685 10.7399 19.4665 10.9685 19.4714 11.2086V13.656C19.4714 13.7612 19.5128 13.862 19.5865 13.9363C19.6601 14.0107 19.76 14.0524 19.8642 14.0524C19.9684 14.0524 20.0683 14.0107 20.1419 13.9363C20.2156 13.862 20.257 13.7612 20.257 13.656V12.2361C20.2599 12.0555 20.3151 11.8796 20.4158 11.7303C20.5165 11.5809 20.6583 11.4645 20.8238 11.3955C20.9892 11.3265 21.1711 11.3079 21.3469 11.342C21.5227 11.376 21.6848 11.4613 21.8132 11.5872C21.898 11.6722 21.9653 11.7733 22.0111 11.8847C22.057 11.996 22.0805 12.1155 22.0803 12.2361V15.5215C22.0396 16.6302 21.7953 17.7216 21.3599 18.7403V18.7411Z" fill="white"/>
<path d="M4.25205 6.43816L6.00155 8.26818C6.07733 8.34739 6.18009 8.39187 6.28722 8.39183C6.39435 8.39179 6.49708 8.34724 6.5728 8.26797C6.64853 8.1887 6.69105 8.08122 6.69101 7.96915C6.69097 7.85709 6.64838 7.74964 6.5726 7.67043L5.51248 6.56151H9.92782C9.94451 6.74789 9.97503 6.93264 10.0191 7.11407C10.0464 7.22241 10.1137 7.31497 10.2063 7.37137C10.2988 7.42778 10.409 7.44342 10.5126 7.41485C10.6162 7.38628 10.7047 7.31584 10.7586 7.21903C10.8125 7.12222 10.8275 7.00696 10.8001 6.89862C10.697 6.46862 10.689 6.01964 10.7769 5.58594C10.8648 5.15224 11.0463 4.74525 11.3074 4.39602C11.5685 4.04679 11.9023 3.76454 12.2835 3.57077C12.6648 3.37701 13.0832 3.27686 13.5071 3.27795C13.9309 3.27905 14.3489 3.38136 14.7292 3.57709C15.1095 3.77282 15.442 4.0568 15.7015 4.40737C15.9609 4.75795 16.1404 5.16586 16.2263 5.60002C16.3121 6.03417 16.3021 6.48309 16.1969 6.91256C16.1807 6.97526 16.1784 7.04102 16.1904 7.10476C16.2023 7.1685 16.2281 7.22852 16.2657 7.2802C16.3033 7.33187 16.3518 7.37382 16.4073 7.4028C16.4629 7.43179 16.5241 7.44704 16.5862 7.44738C17.0163 7.44315 17.03 6.90242 17.072 6.56151H21.4878L20.4276 7.67043C20.3541 7.7501 20.3134 7.85681 20.3143 7.96757C20.3152 8.07834 20.3577 8.18429 20.4326 8.26261C20.5074 8.34094 20.6087 8.38537 20.7146 8.38633C20.8205 8.38729 20.9225 8.34471 20.9987 8.26776L22.7482 6.43816C22.823 6.35839 22.865 6.25107 22.865 6.13928C22.865 6.0275 22.823 5.92018 22.7482 5.8404L20.9987 4.01038C20.9229 3.93117 20.8202 3.88669 20.713 3.88673C20.6059 3.88677 20.5032 3.93133 20.4274 4.01059C20.3517 4.08986 20.3092 4.19735 20.3092 4.30941C20.3093 4.42147 20.3519 4.52893 20.4276 4.60814L21.4878 5.71705H17.0631C16.9532 4.80971 16.5307 3.97545 15.8748 3.37073C15.2188 2.76602 14.3745 2.43237 13.5001 2.43237C12.6258 2.43237 11.7814 2.76602 11.1255 3.37073C10.4695 3.97545 10.047 4.80971 9.93711 5.71705H5.51248L6.5726 4.60814C6.64617 4.52847 6.68687 4.42175 6.68595 4.31099C6.68503 4.20023 6.64256 4.09427 6.56768 4.01595C6.4928 3.93763 6.39151 3.8932 6.28562 3.89224C6.17973 3.89127 6.07772 3.93385 6.00155 4.0108L4.25205 5.8404C4.17719 5.92018 4.13525 6.0275 4.13525 6.13928C4.13525 6.25107 4.17719 6.35839 4.25205 6.43816Z" fill="white"/>
</svg>
