<svg width="22" height="23" viewBox="0 0 22 23" fill="none" xmlns="http://www.w3.org/2000/svg">
<path d="M16.5556 17.125H16.5667M17 13.75H17.6667C18.7021 13.75 19.2198 13.75 19.6282 13.9213C20.1727 14.1496 20.6053 14.5876 20.8308 15.139C21 15.5524 21 16.0766 21 17.125C21 18.1734 21 18.6976 20.8308 19.111C20.6053 19.6624 20.1727 20.1004 19.6282 20.3287C19.2198 20.5 18.7021 20.5 17.6667 20.5H4.33333C3.29791 20.5 2.78019 20.5 2.37181 20.3287C1.82731 20.1004 1.3947 19.6624 1.16916 19.111C1 18.6976 1 18.1734 1 17.125C1 16.0766 1 15.5524 1.16916 15.139C1.3947 14.5876 1.82731 14.1496 2.37181 13.9213C2.78019 13.75 3.29791 13.75 4.33333 13.75H5M11 14.875V2.5M11 14.875L7.66667 11.5M11 14.875L14.3333 11.5" stroke="#7F5B47" stroke-width="2" stroke-linecap="round" stroke-linejoin="round"/>
</svg>
