<svg width="31" height="31" viewBox="0 0 31 31" fill="none" xmlns="http://www.w3.org/2000/svg">
<g clip-path="url(#clip0_2232_19976)">
<g clip-path="url(#clip1_2232_19976)">
<path d="M11.0001 26C11.0001 28.7604 8.76147 31 5.99988 31C3.23828 31 1 28.7604 1 26C1 23.2389 3.23872 21.0002 5.99995 21.0002C8.76118 21.0002 11.0002 18.7612 11.0002 15.9999C11.0002 13.2387 8.7614 11 6.00024 11C3.23909 11 0.999999 8.76104 0.999999 5.99981C0.999999 3.23857 3.23872 0.999855 5.99995 0.999855C8.76118 0.999855 10.9998 3.23865 10.9998 5.99981C10.9998 14.285 17.7175 20.9998 25.9996 20.9998C28.7594 20.9998 30.9996 23.2386 30.9996 25.9998C30.9996 28.7609 28.7614 31 26.0002 31C23.239 31 21 28.7613 21 26C21 23.2388 18.7612 21.0008 16.0001 21.0008C13.2389 21.0008 11.0001 23.2386 11.0001 26Z" fill="#7F5B47"/>
<path d="M22.875 17.25C18.3853 17.25 14.75 13.613 14.75 9.12466C14.7503 4.6363 18.3852 0.999903 22.875 0.999902C27.3629 0.999902 31.0004 4.6363 31.0004 9.12524C31.0004 13.6136 27.3629 17.25 22.875 17.25Z" fill="#7F5B47"/>
</g>
</g>
<defs>
<clipPath id="clip0_2232_19976">
<rect width="31" height="31" fill="white"/>
</clipPath>
<clipPath id="clip1_2232_19976">
<rect width="30" height="30" fill="white" transform="translate(1 31) rotate(-90)"/>
</clipPath>
</defs>
</svg>
