<svg width="31" height="31" viewBox="0 0 31 31" fill="none" xmlns="http://www.w3.org/2000/svg">
<g clip-path="url(#clip0_2232_19960)">
<g clip-path="url(#clip1_2232_19960)">
<path d="M31.0002 5.16647C31.0002 2.31319 28.6867 -0.000150681 25.8335 -0.000150681C22.98 -0.000150681 20.6669 2.31327 20.6669 5.16647C20.6669 8.01996 22.98 10.3331 25.8335 10.3331C28.6868 10.3331 31.0002 8.01996 31.0002 5.16647ZM24.5419 17.4375C24.5419 14.9406 22.5179 12.9166 20.021 12.9166C17.524 12.9166 15.5001 14.9406 15.5001 17.4376C15.5001 19.9342 17.524 21.9585 20.021 21.9585C22.5179 21.9585 24.5419 19.9342 24.5419 17.4375ZM15.5 7.75C15.5 3.46979 12.0301 -0.000150681 7.74985 -0.000150681C3.46994 -0.000150681 0 3.46979 0 7.75007C0 12.0303 3.46994 15.4999 7.74985 15.4999C12.0301 15.4999 15.5001 12.0303 15.5001 7.75007L15.5 7.75ZM12.9171 24.5415C12.9171 20.9746 10.0254 18.0829 6.45854 18.0829C2.89164 18.0829 0 20.9746 0 24.5415C0 28.1084 2.89164 31 6.45854 31C10.0254 31 12.9171 28.1084 12.9171 24.5415ZM31.0002 27.125C31.0002 24.9849 29.265 23.2502 27.1248 23.2502C24.9847 23.2502 23.2499 24.9849 23.2499 27.1251C23.25 29.2652 24.9847 31 27.125 31C29.2651 31 31.0002 29.2652 31.0002 27.125H31.0002ZM29.7082 14.2086C29.7082 13.4952 29.1299 12.9169 28.4165 12.9169C27.7031 12.9169 27.1248 13.4951 27.1248 14.2086C27.1248 14.9217 27.7031 15.4999 28.4165 15.4999C29.1299 15.4999 29.7082 14.9217 29.7082 14.2086ZM20.021 26.4791C20.021 25.4089 19.1536 24.5415 18.0834 24.5415C17.0134 24.5415 16.146 25.4089 16.146 26.4791C16.146 27.549 17.0134 28.4164 18.0834 28.4164C19.1536 28.4164 20.021 27.5491 20.021 26.4791Z" fill="#7F5B47"/>
</g>
</g>
<defs>
<clipPath id="clip0_2232_19960">
<rect width="31" height="31" fill="white"/>
</clipPath>
<clipPath id="clip1_2232_19960">
<rect width="31" height="31" fill="white" transform="matrix(1 0 0 -1 0 31)"/>
</clipPath>
</defs>
</svg>
