<svg width="31" height="31" viewBox="0 0 31 31" fill="none" xmlns="http://www.w3.org/2000/svg">
<g clip-path="url(#clip0_2232_19981)">
<g clip-path="url(#clip1_2232_19981)">
<path d="M3.88039 7.76078C6.02347 7.76078 7.76078 6.02347 7.76078 3.88039C7.76078 1.73731 6.02347 0 3.88039 0C1.73731 0 0 1.73731 0 3.88039C0 6.02347 1.73731 7.76078 3.88039 7.76078Z" fill="#7F5B47"/>
<path d="M10.5742 0C11.2385 1.14149 11.6195 2.46722 11.6195 3.88039C11.6195 5.29355 11.2385 6.61929 10.5742 7.76072H30.9998V0H10.5742Z" fill="#7F5B47"/>
<path d="M27.1196 31C29.2627 31 31 29.2627 31 27.1196C31 24.9766 29.2627 23.2393 27.1196 23.2393C24.9766 23.2393 23.2393 24.9766 23.2393 27.1196C23.2393 29.2627 24.9766 31 27.1196 31Z" fill="#7F5B47"/>
<path d="M15.4995 19.3804C17.6426 19.3804 19.3799 17.6431 19.3799 15.5C19.3799 13.3569 17.6426 11.6196 15.4995 11.6196C13.3565 11.6196 11.6191 13.3569 11.6191 15.5C11.6191 17.6431 13.3565 19.3804 15.4995 19.3804Z" fill="#7F5B47"/>
<path d="M7.76072 15.5C7.76072 14.0869 8.14174 12.7611 8.806 11.6196H0V19.3803H8.806C8.14174 18.2389 7.76072 16.9132 7.76072 15.5ZM22.194 11.6196C22.8583 12.7611 23.2393 14.0869 23.2393 15.5C23.2393 16.9132 22.8583 18.2389 22.194 19.3804H31V11.6196H22.194ZM20.4256 23.2393C19.7613 24.3808 19.3803 25.7065 19.3803 27.1197C19.3803 28.5329 19.7613 29.8586 20.4256 31H0V23.2393H20.4256Z" fill="#7F5B47"/>
</g>
</g>
<defs>
<clipPath id="clip0_2232_19981">
<rect width="31" height="31" fill="white"/>
</clipPath>
<clipPath id="clip1_2232_19981">
<rect width="31" height="31" fill="white"/>
</clipPath>
</defs>
</svg>
