<svg width="31" height="31" viewBox="0 0 31 31" fill="none" xmlns="http://www.w3.org/2000/svg">
<g clip-path="url(#clip0_2232_19969)">
<g clip-path="url(#clip1_2232_19969)">
<g clip-path="url(#clip2_2232_19969)">
<path d="M14.7247 23.5856C9.83092 23.5856 5.86382 19.6184 5.86382 14.7247C5.86382 9.83104 9.83098 5.86382 14.7247 5.86382C19.6183 5.86382 23.5855 9.83098 23.5855 14.7247C23.5855 15.3882 23.5119 16.0344 23.3736 16.6563L27.9403 21.2229C28.9061 19.263 29.4493 17.0574 29.4493 14.7247C29.4494 6.59247 22.8569 0 14.7247 0C6.59241 0 0 6.59247 0 14.7247C0 22.8568 6.59247 29.4493 14.7247 29.4493C17.0574 29.4493 19.263 28.9061 21.2229 27.9403L16.6563 23.3736C16.0221 23.5146 15.3743 23.5857 14.7247 23.5856Z" fill="#7F5B47"/>
<path d="M14.8154 18.9655L18.9611 14.8198L30.9944 26.8531L26.8487 30.9988L14.8154 18.9655Z" fill="#7F5B47"/>
</g>
</g>
</g>
<defs>
<clipPath id="clip0_2232_19969">
<rect width="31" height="31" fill="white"/>
</clipPath>
<clipPath id="clip1_2232_19969">
<rect width="31" height="31" fill="white"/>
</clipPath>
<clipPath id="clip2_2232_19969">
<rect width="31" height="31" fill="white"/>
</clipPath>
</defs>
</svg>
