<svg width="31" height="31" viewBox="0 0 31 31" fill="none" xmlns="http://www.w3.org/2000/svg">
<g clip-path="url(#clip0_2232_19964)">
<g clip-path="url(#clip1_2232_19964)">
<path d="M10.086 22.1437C9.86126 21.9598 9.64579 21.7649 9.44043 21.5596C9.23512 21.3542 9.04018 21.1387 8.85634 20.914C7.8644 21.5222 6.71347 21.8551 5.53215 21.8551H4.68625C5.77068 23.6951 7.30491 25.2294 9.1449 26.3138V25.4679C9.1449 24.2865 9.47779 23.1356 10.086 22.1437ZM8.85628 10.086C9.04012 9.86126 9.23506 9.64579 9.44037 9.44043C9.64573 9.23512 9.8612 9.04018 10.086 8.85634C9.47773 7.8644 9.14484 6.71347 9.14484 5.53215V4.68625C7.30482 5.77067 5.77058 7.30493 4.68619 9.14496H5.53215C6.71347 9.1449 7.86434 9.47779 8.85628 10.086ZM20.914 8.85628C21.1387 9.04012 21.3542 9.23506 21.5596 9.44037C21.7649 9.64573 21.9598 9.8612 22.1437 10.086C23.1356 9.47773 24.2865 9.14484 25.4679 9.14484H26.3137C25.2293 7.30483 23.6951 5.77058 21.8551 4.68613V5.53215C21.8551 6.71347 21.5222 7.86434 20.914 8.85628ZM22.1437 20.914C21.9598 21.1387 21.7649 21.3542 21.5596 21.5596C21.3542 21.7649 21.1387 21.9598 20.914 22.1437C21.5222 23.1356 21.8551 24.2865 21.8551 25.4679V26.3137C23.6951 25.2293 25.2294 23.6951 26.3137 21.855H25.4679C24.2865 21.8551 23.1356 21.5222 22.1437 20.914ZM19.394 7.86198C19.8167 7.1584 20.0396 6.35288 20.0386 5.53209V0H10.9613V5.53215C10.9604 6.35294 11.1832 7.15846 11.6059 7.86204C12.797 7.25318 14.1237 6.93047 15.4999 6.93047C16.8762 6.93047 18.2029 7.25318 19.394 7.86198ZM25.4679 10.9613C24.6471 10.9604 23.8415 11.1832 23.138 11.6059C23.7468 12.797 24.0695 14.1237 24.0695 15.4999C24.0695 16.8762 23.7468 18.2029 23.138 19.394C23.8415 19.8167 24.6471 20.0396 25.4679 20.0386H31V10.9613H25.4679ZM11.6059 23.138C11.1832 23.8415 10.9604 24.6471 10.9613 25.4679V31H20.0387V25.4679C20.0396 24.6471 19.8168 23.8415 19.3941 23.138C18.203 23.7468 16.8763 24.0695 15.5001 24.0695C14.1238 24.0695 12.7971 23.7468 11.6059 23.138ZM7.86198 19.394C7.25312 18.2029 6.93047 16.8763 6.93047 15.4999C6.93047 14.1236 7.25318 12.797 7.86198 11.6059C7.1584 11.1832 6.35288 10.9604 5.53209 10.9613H0V20.0387H5.53215C6.35293 20.0396 7.15843 19.8167 7.86198 19.394Z" fill="#7F5B47"/>
<path d="M15.5002 22.2531C19.2299 22.2531 22.2533 19.2296 22.2533 15.5C22.2533 11.7703 19.2299 8.74683 15.5002 8.74683C11.7706 8.74683 8.74707 11.7703 8.74707 15.5C8.74707 19.2296 11.7706 22.2531 15.5002 22.2531Z" fill="#7F5B47"/>
</g>
</g>
<defs>
<clipPath id="clip0_2232_19964">
<rect width="31" height="31" fill="white"/>
</clipPath>
<clipPath id="clip1_2232_19964">
<rect width="31" height="31" fill="white"/>
</clipPath>
</defs>
</svg>
