<svg width="149" height="42" viewBox="0 0 149 42" fill="none" xmlns="http://www.w3.org/2000/svg">
<g clip-path="url(#clip0_4003_2448)">
<path d="M44.338 13.9987H45.2599L44.9218 22.3239H28.4821V21.5222H30.0498V1.01751H28.4821V0.21582H34.7613V1.01751H33.2455V21.5222H37.8238C38.8685 21.5222 39.7699 21.3629 40.5279 21.0442C41.2858 20.7256 41.9413 20.1756 42.4943 19.3946C42.7811 18.9834 43.0295 18.5724 43.2396 18.1612C43.4494 17.7502 43.621 17.3288 43.7542 16.897C43.8873 16.455 44.0025 15.9951 44.0998 15.5173C44.1973 15.0393 44.2765 14.533 44.338 13.9987Z" fill="white"/>
<path d="M88.0959 22.3239H78.4484V21.5222H79.9991V1.01751H78.4484V0.21582H88.0959C89.028 0.21582 89.9471 0.362234 90.8537 0.655222C91.76 0.948051 92.6332 1.40291 93.4731 2.01963C94.313 2.63635 95.0505 3.37113 95.6855 4.22429C96.3308 5.10819 96.8429 6.15141 97.2219 7.35395C97.6008 8.55649 97.7905 9.88744 97.7905 11.347C97.7905 12.8065 97.6034 14.1322 97.2295 15.3245C96.8557 16.5167 96.3409 17.5497 95.6855 18.4233C95.2042 19.0709 94.6664 19.6362 94.0724 20.1192C93.4782 20.6023 92.8509 21.0082 92.1903 21.3372C91.5296 21.6661 90.8511 21.9127 90.1547 22.0771C89.4581 22.2415 88.7717 22.3239 88.0959 22.3239ZM87.3891 1.01751H83.1948V21.5222H87.3891C88.4134 21.5222 89.3248 21.3372 90.1238 20.9671C90.9227 20.5972 91.5731 20.1038 92.0751 19.487C92.5769 18.8705 92.9917 18.1201 93.3195 17.2362C93.6472 16.3421 93.8752 15.4222 94.0032 14.4766C94.1311 13.5309 94.1952 12.4878 94.1952 11.347C94.1952 10.2061 94.1288 9.15776 93.9955 8.20185C93.8624 7.24593 93.637 6.31583 93.3195 5.41137C93.084 4.75354 92.792 4.15482 92.4438 3.61521C92.0955 3.0756 91.6782 2.61325 91.1916 2.2277C90.7051 1.84231 90.147 1.54422 89.5169 1.3336C88.8871 1.12282 88.1779 1.01751 87.3891 1.01751Z" fill="white"/>
<path d="M147.446 1.13665H148.148H149V0.334961H144.594V1.13665H146.402H147.446Z" fill="white"/>
<path d="M135.063 1.13665H136.872V0.334961H129.814V1.13665H131.376L139.426 22.8131H140.348L141.605 18.9751L135.063 1.13665Z" fill="white"/>
<path d="M110.789 21.674C105.958 19.5645 103.197 14.1661 104.556 8.85364C105.885 3.54545 110.851 0.119296 116.114 0.565867C112.342 0.792578 108.631 4.43987 107.35 9.58428C106.038 14.7328 107.582 19.6849 110.789 21.674ZM114.328 22.5826C118.1 22.3569 121.811 18.7096 123.092 13.5644C124.373 8.41902 122.859 3.46468 119.654 1.47446C124.485 3.58401 127.245 8.98349 125.886 14.2949C124.557 19.6031 119.592 23.0292 114.328 22.5826Z" fill="white"/>
<path d="M69.2253 21.738L61.1747 0H60.2529L58.9722 3.92259L62.9244 14.6462H62.9263L65.538 21.738L63.7042 21.7381V22.5358L70.7778 22.5397V21.738H69.2253Z" fill="white"/>
<path d="M52.1184 21.7384V21.7378H51.6073V22.5395L55.9714 22.5357V21.7383L52.1184 21.7384Z" fill="white"/>
<path d="M5.13608 39.6631C4.55308 39.6631 4.03287 39.5379 3.57386 39.2866C3.11484 39.0352 2.75409 38.6917 2.49079 38.2563C2.22669 37.8209 2.09552 37.327 2.09552 36.7751C2.09552 36.2159 2.22829 35.7182 2.49574 35.2828C2.76144 34.848 3.12459 34.5046 3.5836 34.2532C4.04166 34.002 4.56267 33.876 5.14566 33.876C5.67801 33.876 6.18208 33.9681 6.65627 34.1522C7.13063 34.3364 7.52589 34.591 7.8416 34.9166L7.44233 35.5856C7.26835 35.4161 7.05729 35.257 6.80933 35.1082C6.56137 34.9595 6.29072 34.8407 5.99595 34.7519C5.70134 34.6638 5.39618 34.6194 5.08048 34.6194C4.65214 34.6194 4.26965 34.7146 3.93222 34.9063C3.59399 35.0968 3.32909 35.3522 3.13657 35.6705C2.94501 35.9889 2.85154 36.3574 2.8581 36.7751C2.85154 37.2002 2.949 37.5711 3.15111 37.8902C3.35242 38.2087 3.62211 38.4583 3.95954 38.6383C4.29777 38.8195 4.66827 38.9092 5.07089 38.9092C5.44283 38.9092 5.77467 38.8689 6.06609 38.7871C6.35687 38.7064 6.61441 38.607 6.83745 38.4899C7.06049 38.3734 7.25956 38.2547 7.43259 38.1343L7.82306 38.7927C7.47605 39.0336 7.08238 39.2388 6.64269 39.4085C6.20221 39.5783 5.69974 39.6631 5.13608 39.6631Z" fill="white"/>
<path d="M11.264 39.5571V34.0141H11.9614L11.9797 35.766L11.7664 35.8192C11.8711 35.4445 12.0313 35.1115 12.2448 34.8212C12.4589 34.5313 12.7102 34.301 12.9984 34.1312C13.2868 33.9607 13.5976 33.876 13.9326 33.876C14.162 33.876 14.3851 33.9026 14.6017 33.956C14.819 34.0085 14.9922 34.0852 15.1227 34.1838L14.9182 35.0226C14.7821 34.924 14.6129 34.8513 14.4116 34.8053C14.2096 34.7591 14.0283 34.7365 13.8672 34.7365C13.5573 34.7365 13.285 34.7914 13.0492 34.9004C12.8133 35.0105 12.6151 35.1575 12.4541 35.3417C12.293 35.5259 12.1723 35.7328 12.0917 35.9624C12.0112 36.1926 11.971 36.4284 11.971 36.6685V39.5571H11.264Z" fill="white"/>
<path d="M20.5162 39.6635C19.8712 39.6635 19.3028 39.5439 18.8099 39.3031C18.3172 39.0624 17.9339 38.7238 17.6616 38.2891C17.3888 37.8535 17.2518 37.3597 17.2518 36.8071C17.2518 36.3474 17.334 35.9401 17.499 35.586C17.6624 35.2324 17.892 34.9276 18.1866 34.6732C18.4814 34.4178 18.8188 34.2197 19.2005 34.0783C19.5814 33.9369 19.9824 33.8657 20.4044 33.8657C20.8255 33.8657 21.2144 33.9314 21.5712 34.0622C21.9278 34.1931 22.2395 34.3773 22.506 34.6142C22.7726 34.8517 22.977 35.1344 23.1195 35.4642C23.2622 35.793 23.3273 36.1599 23.3144 36.563L23.3056 37.0406H17.8936L17.7914 36.3717H22.7758L22.617 36.4459L22.6082 36.1913C22.5897 35.9295 22.4842 35.6781 22.2917 35.4376C22.0994 35.1967 21.8409 35.002 21.5156 34.8533C21.1903 34.7045 20.8198 34.6303 20.4044 34.6303C19.9703 34.6303 19.5677 34.6998 19.1956 34.8371C18.8236 34.9752 18.5257 35.2007 18.3026 35.5118C18.0796 35.8236 17.9686 36.2373 17.9686 36.7545C17.9686 37.1861 18.0796 37.561 18.3026 37.8802C18.5257 38.1986 18.8374 38.4465 19.2376 38.6236C19.637 38.8005 20.1128 38.8886 20.6645 38.8886C21.1484 38.8886 21.5574 38.8215 21.8925 38.6866C22.2265 38.5524 22.5277 38.3964 22.7942 38.2196L23.0914 38.8457C22.8996 38.9945 22.6734 39.1309 22.4127 39.2547C22.1526 39.3791 21.8626 39.4776 21.5437 39.552C21.224 39.6264 20.8819 39.6635 20.5162 39.6635Z" fill="white"/>
<path d="M28.8375 39.6631C28.2238 39.6631 27.6956 39.541 27.2519 39.297C26.809 39.053 26.4692 38.7127 26.2342 38.2773C25.9982 37.8425 25.8806 37.3448 25.8806 36.7856C25.8806 36.2192 26.0078 35.7182 26.2615 35.2828C26.5159 34.848 26.8662 34.5046 27.3123 34.2532C27.7593 34.002 28.2706 33.876 28.8472 33.876C29.2191 33.876 29.563 33.9293 29.8787 34.0351C30.1952 34.1419 30.472 34.2832 30.7112 34.4602C30.9496 34.637 31.1372 34.8246 31.2741 35.0226C31.4102 35.2213 31.4843 35.4161 31.4971 35.6067L31.2362 35.5753L31.2645 34.0141H31.9521V39.5571H31.2547V37.9856L31.4319 37.9007C31.419 38.1059 31.3401 38.3144 31.1944 38.527C31.0486 38.7395 30.8587 38.931 30.6225 39.1007C30.3875 39.2704 30.1145 39.4067 29.8045 39.5095C29.4944 39.6123 29.1725 39.6631 28.8375 39.6631ZM28.9582 38.8987C29.4109 38.8987 29.8141 38.8066 30.1669 38.6232C30.5205 38.4389 30.7965 38.1859 30.9946 37.8636C31.1928 37.5411 31.2926 37.1825 31.2926 36.7856C31.2926 36.3824 31.1928 36.0196 30.9946 35.6972C30.7965 35.3748 30.5205 35.1187 30.1669 34.9272C29.8141 34.7365 29.4109 34.6402 28.9582 34.6402C28.4992 34.6402 28.0934 34.7365 27.7406 34.9272C27.3872 35.1187 27.1094 35.3748 26.9081 35.6972C26.7068 36.0196 26.6061 36.3824 26.6061 36.7856C26.6061 37.1825 26.702 37.5411 26.8945 37.8636C27.0861 38.1859 27.3605 38.4389 27.7173 38.6232C28.0733 38.8066 28.4872 38.8987 28.9582 38.8987Z" fill="white"/>
<path d="M35.1603 34.0144H39.4836V34.7788H35.1603V34.0144ZM36.8433 32.2407H37.5407V39.5574H36.8433V32.2407Z" fill="white"/>
<path d="M43.4454 32.74C43.2714 32.74 43.1402 32.6882 43.05 32.5856C42.9597 32.4828 42.9156 32.3431 42.9156 32.1663C42.9156 31.9893 42.9614 31.8478 43.0547 31.742C43.1474 31.6352 43.2779 31.582 43.4454 31.582C43.6128 31.582 43.7424 31.6337 43.8359 31.7364C43.9285 31.8389 43.9752 31.9829 43.9752 32.1663C43.9752 32.3366 43.9285 32.4741 43.8359 32.5808C43.7424 32.6866 43.6128 32.74 43.4454 32.74ZM43.1016 34.0142H43.799V39.5572H43.1016V34.0142Z" fill="white"/>
<path d="M48.1036 39.5571V34.0141H48.7912L48.8195 35.5963L48.5682 35.5856C48.6858 35.3167 48.8564 35.0518 49.0796 34.789C49.3034 34.5273 49.5739 34.3098 49.8936 34.1361C50.2125 33.9625 50.5677 33.876 50.9582 33.876C51.4606 33.876 51.8802 33.9843 52.2184 34.2C52.5557 34.4157 52.8118 34.7081 52.985 35.0758C53.159 35.4445 53.2459 35.8507 53.2459 36.2968V39.5571H52.5389V36.435C52.5389 36.0738 52.4632 35.761 52.3109 35.4953C52.1588 35.2302 51.9535 35.0208 51.6925 34.869C51.4324 34.717 51.1409 34.637 50.8188 34.6299C50.5273 34.6299 50.2576 34.6904 50.0096 34.8109C49.7615 34.9313 49.5482 35.0887 49.3678 35.2828C49.1882 35.4776 49.0489 35.6868 48.9499 35.9097C48.8508 36.1327 48.801 36.3574 48.801 36.5836V39.5571H48.4571H48.2339H48.1036Z" fill="white"/>
<path d="M59.9961 42C59.4502 42 58.984 41.9288 58.5966 41.7876C58.2093 41.6452 57.8944 41.4933 57.653 41.3308L57.9131 40.6085C58.062 40.7006 58.236 40.796 58.4339 40.8954C58.632 40.994 58.8632 41.0796 59.1265 41.15C59.3898 41.2211 59.6828 41.2566 60.0049 41.2566C60.3956 41.2566 60.7434 41.1717 61.0469 41.0012C61.3505 40.8317 61.5873 40.5714 61.7579 40.2207C61.9287 39.8708 62.014 39.4297 62.014 38.8988V38.1448L62.1348 38.1239C62.0413 38.414 61.8651 38.6742 61.605 38.9044C61.3441 39.1346 61.0292 39.3148 60.6613 39.4458C60.2917 39.5767 59.8873 39.6422 59.4478 39.6422C58.9019 39.6422 58.4202 39.5202 58.0016 39.2761C57.5828 39.0314 57.2559 38.6919 57.0208 38.2565C56.7849 37.8209 56.6674 37.3271 56.6674 36.7753C56.6674 36.2089 56.7929 35.708 57.0441 35.2722C57.2945 34.8368 57.6392 34.4957 58.0757 34.2477C58.5128 33.9998 59.0105 33.876 59.5686 33.876C59.7546 33.876 59.9575 33.897 60.1773 33.9399C60.3972 33.9827 60.6162 34.0482 60.8327 34.1361C61.0501 34.2252 61.2548 34.331 61.4464 34.4546C61.6387 34.579 61.8014 34.7237 61.9351 34.8902C62.068 35.0567 62.1565 35.2425 62.2001 35.4477L61.9859 35.4266L62.014 34.0143H62.7114V38.7929C62.7114 39.3593 62.6365 39.8441 62.4884 40.2475C62.3395 40.6513 62.1348 40.9819 61.8739 41.2405C61.6138 41.4989 61.3208 41.6896 60.9955 41.8142C60.67 41.9378 60.3368 42 59.9961 42ZM59.7175 38.8778C60.1821 38.8778 60.5863 38.7873 60.9301 38.6071C61.2749 38.4261 61.5446 38.1773 61.7395 37.8582C61.9351 37.5397 62.0326 37.1785 62.0326 36.7753C62.0326 36.3575 61.9359 35.989 61.7443 35.6707C61.5518 35.3524 61.2805 35.0994 60.9301 34.9112C60.5799 34.7237 60.1789 34.63 59.7264 34.63C59.2802 34.63 58.8818 34.7221 58.5314 34.9063C58.1812 35.0906 57.9041 35.3419 57.6996 35.6602C57.4951 35.9785 57.3929 36.347 57.3929 36.7647C57.3929 37.1608 57.4918 37.5202 57.6899 37.8427C57.888 38.1642 58.1626 38.418 58.5128 38.6015C58.8632 38.7857 59.2642 38.8778 59.7175 38.8778Z" fill="white"/>
<path d="M74.4868 41.8936V34.004H75.1842L75.2027 35.384L75.0634 35.3947C75.1559 35.1044 75.3251 34.8466 75.5699 34.6196C75.8147 34.3935 76.1142 34.2148 76.4678 34.0832C76.8204 33.9522 77.2078 33.8867 77.6296 33.8867C78.1877 33.8867 78.6806 34.0111 79.1081 34.2586C79.5357 34.5066 79.8755 34.8484 80.1258 35.2831C80.3772 35.7186 80.5027 36.2195 80.5027 36.786C80.5027 37.3379 80.3836 37.83 80.1452 38.2623C79.9062 38.6939 79.5687 39.0316 79.1314 39.2763C78.6942 39.5204 78.1909 39.6424 77.62 39.6424C77.1859 39.6424 76.7931 39.5736 76.4395 39.4355C76.0861 39.2974 75.7873 39.1116 75.5426 38.878C75.297 38.6445 75.1189 38.3827 75.0078 38.0916L75.1938 38.0813V41.8936H74.4868ZM77.5178 38.878C77.9647 38.878 78.3575 38.7859 78.6991 38.6018C79.0396 38.4182 79.3094 38.1686 79.5083 37.8533C79.7065 37.5383 79.8054 37.1827 79.8054 36.786C79.8054 36.3683 79.7031 35.9982 79.4986 35.6765C79.2941 35.3542 79.0226 35.1012 78.6854 34.917C78.3471 34.7327 77.9583 34.6406 77.5178 34.6406C77.0596 34.6406 76.6506 34.7327 76.2906 34.917C75.9314 35.1012 75.652 35.3542 75.4539 35.6765C75.255 35.9982 75.1527 36.3651 75.1471 36.7755C75.1471 37.1722 75.2462 37.5294 75.4443 37.8477C75.6432 38.166 75.9217 38.4182 76.2817 38.6018C76.6408 38.7859 77.0532 38.878 77.5178 38.878Z" fill="white"/>
<path d="M86.4591 39.6684C85.8141 39.6684 85.2457 39.5487 84.7528 39.3078C84.26 39.0673 83.8768 38.7287 83.6047 38.2938C83.3316 37.8584 83.1947 37.3646 83.1947 36.812C83.1947 36.3522 83.2768 35.9449 83.4419 35.5909C83.6055 35.2371 83.8349 34.9323 84.1297 34.678C84.4243 34.4225 84.7617 34.2246 85.1434 34.0831C85.5241 33.9418 85.9253 33.8706 86.3473 33.8706C86.7684 33.8706 87.1573 33.9362 87.5141 34.067C87.8708 34.198 88.1824 34.3822 88.4489 34.6189C88.7154 34.8565 88.9199 35.1393 89.0625 35.4691C89.205 35.7979 89.2702 36.1648 89.2574 36.5679L89.2485 37.0454H83.8365L83.7342 36.3764H88.7187L88.5599 36.4508L88.5513 36.1962C88.5327 35.9344 88.4271 35.683 88.2346 35.4424C88.0422 35.2016 87.7837 35.0067 87.4584 34.8582C87.1332 34.7094 86.7627 34.635 86.3473 34.635C85.9132 34.635 85.5105 34.7046 85.1384 34.842C84.7665 34.9801 84.4685 35.2055 84.2457 35.5165C84.0225 35.8285 83.9114 36.2422 83.9114 36.7594C83.9114 37.1908 84.0225 37.5659 84.2457 37.8851C84.4685 38.2034 84.7802 38.4513 85.1805 38.6285C85.5799 38.8054 86.0558 38.8935 86.6074 38.8935C87.0913 38.8935 87.5003 38.8264 87.8352 38.6914C88.1694 38.5573 88.4706 38.4013 88.7372 38.2245L89.0343 38.8506C88.8427 38.9992 88.6165 39.1358 88.3554 39.2596C88.0953 39.3838 87.8055 39.4825 87.4867 39.5569C87.167 39.6313 86.8246 39.6684 86.4591 39.6684Z" fill="white"/>
<path d="M92.2656 39.5571V34.0141H92.9629L92.9814 35.766L92.7681 35.8192C92.8727 35.4445 93.033 35.1115 93.2464 34.8212C93.4605 34.5313 93.7119 34.301 94.0001 34.1312C94.2883 33.9607 94.599 33.876 94.9341 33.876C95.1637 33.876 95.3867 33.9026 95.6033 33.956C95.8206 34.0085 95.9938 34.0852 96.1242 34.1838L95.9197 35.0226C95.7837 34.924 95.6145 34.8513 95.4132 34.8053C95.2113 34.7591 95.0299 34.7365 94.8689 34.7365C94.5589 34.7365 94.2867 34.7914 94.0509 34.9004C93.8147 35.0105 93.6168 35.1575 93.4557 35.3417C93.2945 35.5259 93.1739 35.7328 93.0934 35.9624C93.0129 36.1926 92.9726 36.4284 92.9726 36.6685V39.5571H92.2656Z" fill="white"/>
<path d="M98.7384 33.9827H102.848V34.7251H98.7384V33.9827ZM99.9744 39.4086V33.6425C99.9744 33.2393 100.049 32.8854 100.198 32.5808C100.346 32.276 100.562 32.0337 100.844 31.8535C101.126 31.6724 101.453 31.582 101.825 31.582C102.123 31.582 102.383 31.6305 102.606 31.7257C102.829 31.8212 103.003 31.9254 103.127 32.0393L102.894 32.7503C102.765 32.63 102.604 32.5289 102.416 32.4483C102.227 32.3667 102.042 32.3254 101.863 32.3254C101.553 32.3254 101.306 32.3891 101.123 32.5169C100.94 32.6445 100.81 32.8069 100.733 33.0049C100.655 33.2037 100.616 33.4163 100.616 33.6425V39.4086H100.319H100.17H99.9744Z" fill="white"/>
<path d="M108.076 39.6843C107.431 39.6843 106.862 39.5648 106.37 39.324C105.877 39.0834 105.494 38.7447 105.221 38.3099C104.948 37.8745 104.812 37.3807 104.812 36.8279C104.812 36.3683 104.894 35.9611 105.059 35.607C105.222 35.2532 105.452 34.9484 105.746 34.694C106.041 34.4386 106.379 34.2407 106.76 34.0993C107.141 33.9579 107.542 33.8867 107.964 33.8867C108.385 33.8867 108.774 33.9522 109.131 34.0832C109.488 34.214 109.799 34.3983 110.066 34.635C110.332 34.8726 110.537 35.1554 110.679 35.4852C110.822 35.814 110.887 36.1808 110.874 36.584L110.865 37.0615H105.453L105.351 36.3925H110.336L110.177 36.4669L110.168 36.2123C110.15 35.9504 110.044 35.6991 109.852 35.4584C109.659 35.2177 109.401 35.0228 109.075 34.8743C108.75 34.7255 108.379 34.6511 107.964 34.6511C107.53 34.6511 107.128 34.7208 106.755 34.8581C106.383 34.9962 106.086 35.2217 105.862 35.5326C105.639 35.8446 105.528 36.2583 105.528 36.7755C105.528 37.2069 105.639 37.582 105.862 37.9011C106.086 38.2196 106.397 38.4675 106.797 38.6445C107.197 38.8215 107.673 38.9096 108.224 38.9096C108.708 38.9096 109.117 38.8425 109.452 38.7076C109.786 38.5732 110.088 38.4174 110.354 38.2404L110.651 38.8667C110.46 39.0154 110.233 39.1519 109.972 39.2757C109.712 39.4 109.422 39.4986 109.104 39.573C108.784 39.6474 108.442 39.6843 108.076 39.6843Z" fill="white"/>
<path d="M116.281 39.6103C115.698 39.6103 115.178 39.4851 114.719 39.2337C114.26 38.9825 113.9 38.639 113.636 38.2036C113.372 37.768 113.241 37.2743 113.241 36.7224C113.241 36.1632 113.374 35.6654 113.641 35.23C113.907 34.7952 114.27 34.4518 114.729 34.2005C115.187 33.9493 115.708 33.8232 116.291 33.8232C116.823 33.8232 117.327 33.9153 117.802 34.0995C118.276 34.2837 118.671 34.5383 118.987 34.8639L118.588 35.5329C118.414 35.3634 118.203 35.2041 117.955 35.0554C117.707 34.9068 117.436 34.7879 117.141 34.6992C116.847 34.6109 116.541 34.5666 116.226 34.5666C115.797 34.5666 115.415 34.6619 115.077 34.8536C114.739 35.0441 114.474 35.2993 114.282 35.6178C114.09 35.9361 113.997 36.3046 114.003 36.7224C113.997 37.1474 114.094 37.5183 114.296 37.8374C114.498 38.1558 114.767 38.4056 115.105 38.5856C115.443 38.7668 115.814 38.8564 116.216 38.8564C116.588 38.8564 116.92 38.816 117.211 38.7344C117.502 38.6536 117.76 38.5542 117.983 38.4371C118.206 38.3207 118.405 38.2018 118.578 38.0815L118.968 38.74C118.621 38.9809 118.228 39.1861 117.788 39.3558C117.347 39.5254 116.845 39.6103 116.281 39.6103Z" fill="white"/>
<path d="M121.591 34.0144H125.914V34.7788H121.591V34.0144ZM123.274 32.2407H123.971V39.5574H123.274V32.2407Z" fill="white"/>
<path d="M129.815 32.74C129.641 32.74 129.509 32.6882 129.419 32.5856C129.329 32.4828 129.285 32.3431 129.285 32.1663C129.285 31.9893 129.331 31.8478 129.424 31.742C129.517 31.6352 129.647 31.582 129.815 31.582C129.982 31.582 130.112 31.6337 130.205 31.7364C130.298 31.8389 130.344 31.9829 130.344 32.1663C130.344 32.3366 130.298 32.4741 130.205 32.5808C130.112 32.6866 129.982 32.74 129.815 32.74ZM129.471 34.0142H130.168V39.5572H129.471V34.0142Z" fill="white"/>
<path d="M136.44 39.6631C135.801 39.6631 135.239 39.5412 134.753 39.2971C134.265 39.053 133.886 38.7097 133.613 38.2668C133.34 37.8249 133.204 37.324 133.204 36.7647C133.204 36.2055 133.34 35.7078 133.613 35.2722C133.886 34.8367 134.265 34.4957 134.753 34.2477C135.239 33.9998 135.801 33.876 136.44 33.876C137.072 33.876 137.63 33.9998 138.114 34.2477C138.597 34.4957 138.977 34.8367 139.253 35.2722C139.528 35.7078 139.666 36.2055 139.666 36.7647C139.666 37.324 139.528 37.8233 139.253 38.262C138.977 38.7006 138.597 39.0443 138.114 39.2914C137.63 39.5394 137.072 39.6631 136.44 39.6631ZM136.44 38.9092C136.911 38.9092 137.337 38.8179 137.718 38.6337C138.1 38.4494 138.4 38.1965 138.62 37.8741C138.84 37.5516 138.947 37.1825 138.941 36.7647C138.947 36.347 138.84 35.9769 138.62 35.6545C138.4 35.3329 138.1 35.0817 137.718 34.9006C137.337 34.7204 136.911 34.63 136.44 34.63C135.963 34.63 135.534 34.7204 135.152 34.9006C134.771 35.0817 134.47 35.3329 134.25 35.6545C134.03 35.9769 133.923 36.347 133.93 36.7647C133.923 37.1825 134.03 37.5516 134.25 37.8741C134.47 38.1965 134.773 38.4494 135.157 38.6337C135.541 38.8179 135.969 38.9092 136.44 38.9092Z" fill="white"/>
<path d="M142.023 39.5571V34.0141H142.711L142.739 35.5963L142.488 35.5856C142.605 35.3167 142.776 35.0518 142.999 34.789C143.223 34.5273 143.494 34.3098 143.813 34.1361C144.132 33.9625 144.487 33.876 144.878 33.876C145.38 33.876 145.8 33.9843 146.138 34.2C146.475 34.4157 146.731 34.7081 146.905 35.0758C147.078 35.4445 147.166 35.8507 147.166 36.2968V39.5571H146.459V36.435C146.459 36.0738 146.383 35.761 146.231 35.4953C146.078 35.2302 145.873 35.0208 145.612 34.869C145.352 34.717 145.061 34.637 144.739 34.6299C144.447 34.6299 144.177 34.6904 143.929 34.8109C143.681 34.9313 143.468 35.0887 143.287 35.2828C143.108 35.4776 142.969 35.6868 142.87 35.9097C142.77 36.1327 142.72 36.3574 142.72 36.5836V39.5571H142.377H142.154H142.023Z" fill="white"/>
<path d="M4.78635 11.6245V21.5222H6.35128V22.3239H0V21.5222H1.59082V1.01751H0V0.21582H6.35128V1.01751H4.78635V10.6531L6.35352 9.92854L13.5898 1.01751H11.9012V0.21582H16.283V1.01751H14.6653L8.78088 8.2635L18.2603 21.5222H19.8116V22.3239H12.568V21.5222H14.1735L6.52255 10.8228L4.78635 11.6245Z" fill="white"/>
</g>
<defs>
<clipPath id="clip0_4003_2448">
<rect width="149" height="42" fill="white"/>
</clipPath>
</defs>
</svg>
